<svg width="24" height="24" viewBox="0 0 24 24" fill="none" xmlns="http://www.w3.org/2000/svg">
<path d="M4.5 4.125V4.5H5.25C5.44891 4.5 5.63968 4.42098 5.78033 4.28033C5.92098 4.13968 6 3.94891 6 3.75V3H5.625C5.32663 3 5.04048 3.11853 4.8295 3.3295C4.61853 3.54048 4.5 3.82663 4.5 4.125ZM5.625 1.5H12.375C13.824 1.5 15 2.676 15 4.125V4.9395L19.4625 9.402C19.95 9.88955 20.3367 10.4683 20.6005 11.1053C20.8643 11.7423 21 12.425 21 13.1145V21.75C21 21.9489 20.921 22.1397 20.7803 22.2803C20.6397 22.421 20.4489 22.5 20.25 22.5C20.0511 22.5 19.8603 22.421 19.7197 22.2803C19.579 22.1397 19.5 21.9489 19.5 21.75V13.1145C19.5001 12.622 19.4032 12.1343 19.2148 11.6793C19.0264 11.2243 18.7502 10.8108 18.402 10.4625L15 7.0605V10.938L16.281 12.219C16.4218 12.3596 16.501 12.5504 16.5012 12.7495C16.5013 12.9485 16.4224 13.1394 16.2817 13.2803C16.1411 13.4211 15.9503 13.5003 15.7513 13.5004C15.5523 13.5006 15.3613 13.4216 15.2205 13.281L13.746 11.805L13.695 11.754L11.859 9.918C11.7569 9.81204 11.6347 9.72749 11.4995 9.66931C11.3644 9.61112 11.219 9.58047 11.0718 9.57914C10.9247 9.57781 10.7788 9.60582 10.6426 9.66155C10.5064 9.71728 10.3827 9.7996 10.2787 9.9037C10.1747 10.0078 10.0925 10.1316 10.0369 10.2678C9.98129 10.4041 9.95341 10.55 9.95488 10.6972C9.95636 10.8443 9.98715 10.9897 10.0455 11.1248C10.1038 11.2599 10.1884 11.382 10.2945 11.484L12.531 13.719C12.6009 13.7887 12.6563 13.8714 12.6942 13.9625C12.732 14.0536 12.7515 14.1513 12.7515 14.25V15.75C12.7515 16.1476 12.9093 16.5289 13.1903 16.8101C13.4713 17.0914 13.8524 17.2496 14.25 17.25C14.4489 17.25 14.6397 17.329 14.7803 17.4697C14.921 17.6103 15 17.8011 15 18V19.875C15 20.5712 14.7234 21.2389 14.2312 21.7312C13.7389 22.2234 13.0712 22.5 12.375 22.5H5.625C4.92881 22.5 4.26113 22.2234 3.76884 21.7312C3.27656 21.2389 3 20.5712 3 19.875V4.125C3 2.676 4.176 1.5 5.625 1.5ZM12 21H12.375C12.6734 21 12.9595 20.8815 13.1705 20.6705C13.3815 20.4595 13.5 20.1734 13.5 19.875V19.5H12.75C12.5511 19.5 12.3603 19.579 12.2197 19.7197C12.079 19.8603 12 20.0511 12 20.25V21ZM12.315 18.042C11.9816 17.7606 11.7136 17.4099 11.5297 17.0143C11.3457 16.6187 11.2503 16.1878 11.25 15.7515V14.5605L10.9605 14.271C10.5908 14.5896 10.1489 14.8132 9.67326 14.9224C9.19758 15.0316 8.70244 15.0231 8.2308 14.8976C7.75915 14.7721 7.32524 14.5335 6.9667 14.2024C6.60816 13.8712 6.33582 13.4576 6.17329 12.9974C6.01077 12.5372 5.96298 12.0443 6.03406 11.5615C6.10514 11.0787 6.29295 10.6204 6.5812 10.2266C6.86944 9.83277 7.24942 9.51521 7.68818 9.30146C8.12693 9.08771 8.6112 8.98423 9.099 9C9.219 8.86 9.357 8.7315 9.513 8.6145C10.0151 8.2388 10.6357 8.05644 11.2612 8.10079C11.8868 8.14513 12.4754 8.41322 12.9195 8.856L13.5 9.438V6H12.75C12.1533 6 11.581 5.76295 11.159 5.34099C10.7371 4.91903 10.5 4.34674 10.5 3.75V3H7.5V3.75C7.5 4.34674 7.26295 4.91903 6.84099 5.34099C6.41903 5.76295 5.84674 6 5.25 6H4.5V18H5.25C5.84674 18 6.41903 18.2371 6.84099 18.659C7.26295 19.081 7.5 19.6533 7.5 20.25V21H10.5V20.25C10.4999 19.7287 10.6808 19.2235 11.0119 18.8208C11.3429 18.4181 11.8035 18.1428 12.315 18.042ZM12.75 4.5H13.5V4.125C13.5 3.82663 13.3815 3.54048 13.1705 3.3295C12.9595 3.11853 12.6734 3 12.375 3H12V3.75C12 3.94891 12.079 4.13968 12.2197 4.28033C12.3603 4.42098 12.5511 4.5 12.75 4.5ZM4.5 19.5V19.875C4.5 20.496 5.004 21 5.625 21H6V20.25C6 20.0511 5.92098 19.8603 5.78033 19.7197C5.63968 19.579 5.44891 19.5 5.25 19.5H4.5ZM9.894 13.2045L9.234 12.5445C8.97852 12.2902 8.77882 11.9855 8.64762 11.6498C8.51643 11.314 8.45661 10.9546 8.472 10.5945C8.27175 10.6705 8.0901 10.7885 7.93927 10.9406C7.78843 11.0926 7.67191 11.2752 7.59754 11.4761C7.52317 11.6769 7.49268 11.8914 7.50811 12.105C7.52355 12.3186 7.58455 12.5265 7.68702 12.7146C7.78949 12.9026 7.93105 13.0666 8.10218 13.1954C8.27331 13.3242 8.47003 13.4148 8.67913 13.4613C8.88822 13.5077 9.10483 13.5088 9.31438 13.4645C9.52393 13.4202 9.72157 13.3316 9.894 13.2045Z" fill="white"/>
</svg>
