<svg width="24" height="24" viewBox="0 0 24 24" fill="none" xmlns="http://www.w3.org/2000/svg">
<g clip-path="url(#clip0_74_202)">
<path fill-rule="evenodd" clip-rule="evenodd" d="M19.7732 8.259C20.7712 6.312 22.6292 2.607 20.4622 2.318C18.7338 2.05992 16.9877 1.93954 15.2402 1.958C15.2882 1.66067 15.3115 1.36133 15.3102 1.06C15.2502 -0.238 13.4932 0.0200004 12.9832 0.0200004C12.4823 -0.00307006 11.9808 0.0508917 11.4962 0.18C8.13021 0.91 8.36021 0.75 7.27221 1.02C6.37571 1.23517 5.51251 1.57089 4.70621 2.018C4.52488 2.15408 4.38619 2.33912 4.30647 2.55136C4.22675 2.7636 4.20931 2.99419 4.25621 3.216C4.25621 3.456 4.99621 6.701 5.14621 7.28C5.40521 8.338 5.51521 8.508 6.05421 10.695C6.12421 10.985 6.13421 11.494 6.56421 11.534C6.60357 11.538 6.64332 11.5342 6.6812 11.5228C6.71907 11.5113 6.75431 11.4925 6.78488 11.4674C6.81546 11.4423 6.84077 11.4115 6.85937 11.3765C6.87796 11.3416 6.88946 11.3034 6.89321 11.264C6.89321 10.934 6.38321 9.676 5.77421 5.583C6.99321 5.873 9.27921 3.596 8.99021 1.769C11.9852 1.199 11.7552 0.919 12.9832 0.879C13.3732 0.879 14.3312 0.66 14.5712 0.979C14.6712 1.109 14.5712 1.809 14.6212 1.979C14.1012 1.979 11.3862 2.138 11.0262 2.527C10.6828 3.0953 10.5096 3.75021 10.5272 4.414C10.4672 4.874 9.88821 9.836 9.96821 10.275C9.96885 10.3217 9.97971 10.3678 10 10.4099C10.0204 10.452 10.0497 10.4891 10.0859 10.5186C10.1221 10.5482 10.1644 10.5694 10.2097 10.5809C10.255 10.5924 10.3023 10.5938 10.3482 10.585C10.5082 10.585 11.1962 6.012 11.2062 5.932C11.5926 6.03698 11.9985 6.04726 12.3897 5.96196C12.7808 5.87666 13.1457 5.6983 13.4532 5.442C13.8379 5.17569 14.1566 4.82498 14.3851 4.41665C14.6135 4.00832 14.7456 3.55318 14.7712 3.086H17.2472C17.1523 3.47153 17.1441 3.87329 17.2232 4.26238C17.3022 4.65146 17.4665 5.01819 17.7042 5.33617C17.942 5.65415 18.2472 5.91547 18.5981 6.10132C18.9489 6.28717 19.3366 6.39294 19.7332 6.411C19.5332 6.911 19.3132 7.41 19.0842 7.919L18.7842 8.748C18.6542 9.148 19.2742 9.477 19.4442 9.088C19.4942 8.948 19.4042 9.179 19.7732 8.259ZM5.67521 4.904C5.57521 4.204 5.38521 3.276 5.38521 3.256C5.29521 2.537 5.53521 2.816 6.20421 2.537C6.84759 2.27037 7.51634 2.06967 8.20021 1.938C8.06021 2.718 6.45221 4.784 5.67421 4.904M12.8832 4.464C11.6252 5.463 11.8842 5.164 11.3252 5.244C11.4072 4.624 11.5239 4.01133 11.6752 3.406C11.7652 3.406 12.6732 3.216 14.0612 3.126C13.9012 3.686 13.1822 4.215 12.8832 4.464ZM18.7832 4.834C17.7852 3.835 17.9552 3.246 17.9352 3.156C18.7442 3.156 19.5522 3.266 20.3412 3.346C20.7612 3.346 20.1712 5.233 20.0312 5.643C19.5443 5.50288 19.1102 5.22089 18.7842 4.833" fill="white"/>
<path fill-rule="evenodd" clip-rule="evenodd" d="M22.5091 14.799C22.2491 13.67 21.5601 12.802 20.4021 12.931C20.2621 12.691 20.8221 10.535 19.1441 9.786C18.9335 9.68236 18.7071 9.61476 18.4741 9.586C17.9941 9.516 17.5041 9.616 17.0871 9.866C16.5571 10.116 14.3211 10.785 14.3211 10.805C13.8521 10.925 9.32912 11.733 8.06112 11.803C6.60312 11.853 4.18712 11.653 5.12512 10.515C5.17783 10.4578 5.20709 10.3828 5.20709 10.305C5.20709 10.2272 5.17783 10.1522 5.12512 10.095C4.73612 9.766 4.26712 10.635 4.29712 11.155C4.36712 12.442 6.80312 12.812 8.09112 12.862C12.2851 13.012 17.4171 10.785 17.6561 10.305C19.1541 10.555 19.4831 11.723 19.7231 13.301C19.1931 14.05 18.5851 13.671 16.9171 14.03C15.6691 14.3 14.9201 14.908 14.9901 16.186C15.0005 16.6503 15.1471 17.1013 15.4116 17.483C15.6762 17.8647 16.047 18.1603 16.4781 18.333C16.7721 18.4283 17.0718 18.5017 17.3771 18.553C18.2112 18.7363 19.0769 18.7192 19.9031 18.503C19.8031 21.278 19.4931 21.269 17.9061 21.808C15.3401 22.646 7.16212 23.535 4.92612 22.148C3.54812 21.388 3.32812 19.99 2.99912 18.563C2.54273 16.6987 2.28794 14.7907 2.23912 12.872C2.19012 9.806 2.39912 9.776 4.23712 8.448C4.29674 8.3917 4.334 8.31574 4.34203 8.23414C4.35007 8.15253 4.32834 8.07076 4.28085 8.00391C4.23336 7.93706 4.16331 7.88963 4.08361 7.87035C4.0039 7.85107 3.91992 7.86124 3.84712 7.899C1.85012 9.287 1.49112 9.507 1.43112 12.891C1.40468 14.8696 1.59582 16.8452 2.00112 18.782C2.37012 20.57 2.61912 22.107 4.23712 23.116C7.42212 25.113 18.6751 23.366 20.0031 21.448C20.4531 20.4647 20.629 19.378 20.5121 18.303C21.214 18.0612 21.8039 17.572 22.1714 16.927C22.5389 16.2819 22.659 15.5261 22.5091 14.799ZM17.6061 17.463C17.2147 17.427 16.8363 17.3044 16.4981 17.104C15.9681 16.674 15.7691 15.596 16.3581 15.217C17.7561 14.328 19.5731 15.077 20.3521 13.599C20.4421 13.599 21.5101 13.289 21.7601 14.947C22.0201 16.994 19.5631 17.923 17.6061 17.463Z" fill="white"/>
<path fill-rule="evenodd" clip-rule="evenodd" d="M15.8492 9.207C16.2074 9.06331 16.5914 8.99521 16.9772 9.007C17.0672 9.517 17.9762 9.317 17.9062 8.917C17.8162 8.199 17.3862 7.999 16.6482 7.919C16.2824 7.88719 15.9145 7.95049 15.5804 8.10275C15.2463 8.25501 14.9572 8.49106 14.7412 8.788C14.5442 9.13 14.4512 9.522 14.4712 9.916C14.3812 10.306 15.2802 10.216 15.2902 9.856C15.4802 9.406 15.5802 9.326 15.8492 9.207Z" fill="white"/>
</g>
<defs>
<clipPath id="clip0_74_202">
<rect width="24" height="24" fill="white"/>
</clipPath>
</defs>
</svg>
